<?xml version="1.0" standalone="no"?>
<!DOCTYPE svg PUBLIC "-//W3C//DTD SVG 20010904//EN"
 "http://www.w3.org/TR/2001/REC-SVG-20010904/DTD/svg10.dtd">
<svg version="1.0" xmlns="http://www.w3.org/2000/svg"
 width="700.000000pt" height="700.000000pt" viewBox="0 0 700.000000 700.000000"
 preserveAspectRatio="xMidYMid meet">
<metadata>
Created by potrace 1.14, written by Peter Selinger 2001-2017
</metadata>
<g transform="translate(0.000000,700.000000) scale(0.100000,-0.100000)"
fill="#000000" stroke="none">
<path d="M3278 6995 c-1 -1 -42 -5 -89 -9 -47 -4 -95 -8 -106 -10 -11 -3 -44
-7 -74 -11 -102 -12 -217 -34 -344 -67 -44 -11 -89 -22 -101 -24 -91 -17 -415
-140 -579 -220 -180 -87 -448 -247 -555 -331 -8 -6 -51 -40 -95 -74 -351 -273
-674 -652 -897 -1054 -49 -87 -148 -289 -148 -301 0 -2 -9 -23 -20 -47 -57
-123 -157 -435 -186 -582 -2 -11 -10 -54 -19 -95 -22 -115 -30 -160 -41 -255
-26 -230 -26 -667 1 -826 2 -13 6 -46 9 -74 9 -78 22 -152 51 -285 21 -96 91
-339 114 -395 5 -11 25 -65 46 -120 63 -166 249 -531 312 -610 4 -6 34 -49 65
-95 170 -255 433 -535 708 -755 92 -74 370 -265 386 -265 4 0 15 -6 23 -14 26
-22 298 -158 408 -204 282 -116 583 -199 862 -238 25 -3 57 -8 71 -10 163 -25
682 -25 842 1 13 2 46 7 73 10 74 11 87 13 120 19 17 4 46 9 65 12 85 14 287
67 430 114 178 57 568 235 660 300 15 11 33 20 39 20 6 0 11 5 11 10 0 6 5 10
10 10 15 0 220 141 330 227 152 118 324 280 450 422 36 41 70 79 76 85 6 6 48
61 94 121 150 197 277 405 383 628 26 53 47 99 47 102 0 2 11 28 24 57 57 127
151 421 182 573 17 81 54 301 59 350 4 33 9 71 11 85 9 47 11 525 3 605 -15
165 -21 220 -24 225 -2 3 -6 30 -10 60 -4 30 -22 123 -40 205 -53 232 -102
385 -197 610 -422 993 -1304 1752 -2346 2014 -121 31 -244 57 -312 66 -19 3
-46 7 -60 10 -13 2 -52 7 -86 11 -33 3 -74 8 -90 10 -32 5 -540 14 -546 9z
m472 -1560 c19 -3 72 -13 117 -21 75 -13 236 -55 273 -71 8 -3 17 -7 20 -7 11
-2 80 -32 160 -68 316 -145 593 -381 795 -677 64 -93 162 -275 190 -351 36
-98 78 -227 86 -265 5 -22 12 -51 15 -65 28 -114 41 -268 38 -440 -2 -170 -5
-214 -20 -278 -3 -13 -7 -43 -10 -65 -8 -58 -68 -261 -105 -354 -17 -43 -53
-121 -81 -173 -308 -581 -852 -956 -1503 -1037 -80 -10 -372 -10 -460 0 -208
25 -446 98 -643 197 -96 49 -255 147 -303 188 -13 11 -44 37 -69 57 -323 266
-562 659 -653 1076 -35 160 -39 192 -42 389 -6 327 53 592 195 885 284 587
842 987 1505 1080 90 12 426 13 495 0z"/>
</g>
</svg>
